# xmcd CD database file
#
# Track frame offsets:
#	150
#	14377
#	30870
#	50560
#	66620
#	83657
#	104765
#	120017
#	135380
#	150087
#	163342
#	185877
#	200932
#	217565
#	228162
#	249292
#
# Disc length: 3596 seconds
#
# Revision: 4
# Processed by: cddbd v1.5.2PL0 Copyright (c) Steve Scherf et al.
# Submitted via: CDex 1.70beta2
#
DISCID=cc0e0a10
DTITLE=松山千春 - アンソロジー ～シングル･コレクション～
DYEAR=2003
DGENRE=JPop
TTITLE0=旅立ち
TTITLE1=初恋
TTITLE2=かざぐるま
TTITLE3=銀の雨
TTITLE4=時のいたずら
TTITLE5=白い花
TTITLE6=青春
TTITLE7=MY自転車
TTITLE8=季節の中で
TTITLE9=青春II
TTITLE10=窓
TTITLE11=卒業
TTITLE12=夜明け
TTITLE13=サイクリング
TTITLE14=恋
TTITLE15=帰ろうか
EXTD=YEAR: 2003
EXTT0=
EXTT1=
EXTT2=
EXTT3=
EXTT4=
EXTT5=
EXTT6=
EXTT7=
EXTT8=
EXTT9=
EXTT10=
EXTT11=
EXTT12=
EXTT13=
EXTT14=
EXTT15=
PLAYORDER=
